<svg xmlns="http://www.w3.org/2000/svg" width="64" height="64" viewBox="0 0 40 40">
  <defs><radialGradient id="lm" cx="34%" cy="26%" r="86%"><stop offset="0" stop-color="#C2703C"/><stop offset=".68" stop-color="#5A2F16"/><stop offset="1" stop-color="#2A1A10"/></radialGradient></defs>
  <circle cx="20" cy="20" r="20" fill="url(#lm)"/>
  <circle cx="20" cy="20" r="18.6" fill="none" stroke="#DFBB78" stroke-width="1.6" stroke-opacity=".95"/>
  <path d="M11.6 16.6h13.2v5.6a6.6 6.6 0 0 1-6.6 6.6h0a6.6 6.6 0 0 1-6.6-6.6v-5.6Z" fill="#F9F3EC"/>
  <path d="M25.2 18.2h1.9a2.9 2.9 0 0 1 0 5.8h-1.9" fill="none" stroke="#F9F3EC" stroke-width="2" stroke-linecap="round"/>
  <path d="M10.2 31h16.4" stroke="#DFBB78" stroke-width="2" stroke-linecap="round"/>
  <path d="M16.4 13.2c1.8-1.4-1.3-2.9.5-4.8M21.2 13.2c1.8-1.4-1.3-2.9.5-4.8" fill="none" stroke="#F4EAE1" stroke-width="1.8" stroke-linecap="round" stroke-opacity=".85"/>
</svg>
